<svg viewBox="0 0 690 690" role="img" xmlns="http://www.w3.org/2000/svg" preserveAspectRatio="xMidYMid slice">
<style>
/* Static light theme - dark mode handled by CSS filter in CoverThumb */
:root {
  --bee-bg: #f7f3ee;
  --bee-gold: #b8922a;
  --bee-gold-light: #e8d4a8;
  --bee-amber: #d4a020;
  --bee-dark: #2a2218;
  --bee-green: #5a7848;
  --bee-honey: #c07808;
  --bee-royal: #e0d090;
  --bee-propolis: #886030;
  --bee-bread: #b09040;
  --bee-wing: #c8e0f0;
}
</style>
<title>Blog thumbnail: One Queen, 50,000 Workers, and a Lot of Bee Spit</title>
<desc>A quiet editorial illustration of a bee colony — a large central honeycomb, a crowned queen bee, worker bees, and small vials of honey, royal jelly, propolis, and bee bread in a muted, handmade style.</desc>

<!-- Background - full size to fill container -->
<rect width="690" height="690" rx="12" fill="var(--bee-bg)"/>

<!-- Subtle texture dots -->
<circle cx="60" cy="80" r="3" fill="var(--bee-gold)" opacity="0.12"/>
<circle cx="140" cy="50" r="2" fill="var(--bee-gold)" opacity="0.12"/>
<circle cx="590" cy="90" r="3" fill="var(--bee-gold)" opacity="0.12"/>
<circle cx="630" cy="160" r="2" fill="var(--bee-gold)" opacity="0.12"/>
<circle cx="80" cy="580" r="2" fill="var(--bee-gold)" opacity="0.12"/>
<circle cx="600" cy="600" r="3" fill="var(--bee-gold)" opacity="0.12"/>
<circle cx="50" cy="340" r="2" fill="var(--bee-gold)" opacity="0.12"/>
<circle cx="640" cy="400" r="2" fill="var(--bee-gold)" opacity="0.12"/>
<circle cx="330" cy="50" r="2" fill="var(--bee-gold)" opacity="0.12"/>
<circle cx="200" cy="620" r="3" fill="var(--bee-gold)" opacity="0.12"/>
<circle cx="480" cy="640" r="2" fill="var(--bee-gold)" opacity="0.12"/>

<!-- Subtle cross-hatch texture lines -->
<line x1="0" y1="200" x2="200" y2="0" stroke="var(--bee-gold)" stroke-width="0.5" opacity="0.06"/>
<line x1="0" y1="400" x2="400" y2="0" stroke="var(--bee-gold)" stroke-width="0.5" opacity="0.06"/>
<line x1="280" y1="680" x2="680" y2="280" stroke="var(--bee-gold)" stroke-width="0.5" opacity="0.06"/>
<line x1="0" y1="600" x2="600" y2="0" stroke="var(--bee-gold)" stroke-width="0.5" opacity="0.06"/>

<!-- Botanical sprigs - top left -->
<g stroke="var(--bee-green)" opacity="0.4">
  <path d="M90 140 Q100 100 115 75" stroke-width="1.2" fill="none"/>
  <path d="M100 118 Q82 108 75 95" stroke-width="1" fill="none"/>
  <path d="M108 98 Q120 88 118 78" stroke-width="1" fill="none"/>
</g>
<ellipse cx="78" cy="93" rx="9" ry="5" transform="rotate(-30,78,93)" fill="var(--bee-green)" opacity="0.45"/>
<ellipse cx="118" cy="77" rx="7" ry="4" transform="rotate(10,118,77)" fill="var(--bee-green)" opacity="0.45"/>
<ellipse cx="115" cy="73" rx="5" ry="3" transform="rotate(-15,115,73)" fill="var(--bee-green)" opacity="0.45"/>

<!-- Botanical sprigs - top right -->
<g stroke="var(--bee-green)" opacity="0.4">
  <path d="M590 130 Q580 90 565 68" stroke-width="1.2" fill="none"/>
  <path d="M578 108 Q595 98 600 85" stroke-width="1" fill="none"/>
  <path d="M570 88 Q558 78 560 68" stroke-width="1" fill="none"/>
</g>
<ellipse cx="601" cy="83" rx="9" ry="5" transform="rotate(30,601,83)" fill="var(--bee-green)" opacity="0.45"/>
<ellipse cx="559" cy="67" rx="7" ry="4" transform="rotate(-10,559,67)" fill="var(--bee-green)" opacity="0.45"/>

<!-- Botanical - bottom corners -->
<g stroke="var(--bee-green)" opacity="0.4">
  <path d="M110 590 Q90 560 80 535" stroke-width="1.2" fill="none"/>
  <path d="M95 568 Q76 565 68 552" stroke-width="1" fill="none"/>
</g>
<ellipse cx="67" cy="550" rx="8" ry="4.5" transform="rotate(-40,67,550)" fill="var(--bee-green)" opacity="0.45"/>

<g stroke="var(--bee-green)" opacity="0.4">
  <path d="M570 600 Q590 570 600 545" stroke-width="1.2" fill="none"/>
  <path d="M585 572 Q604 568 612 555" stroke-width="1" fill="none"/>
</g>
<ellipse cx="613" cy="553" rx="8" ry="4.5" transform="rotate(40,613,553)" fill="var(--bee-green)" opacity="0.45"/>

<!-- HONEYCOMB — central, large, slightly tilted -->
<g transform="translate(340,360) rotate(-3)">
  <!-- Row 0 y=-140 -->
  <g transform="translate(-155,-140)">
    <polygon points="21,0 42,12 42,36 21,48 0,36 0,12" fill="var(--bee-gold-light)" stroke="var(--bee-gold)" stroke-width="1.2"/>
    <polygon points="21,0 42,12 42,36 21,48 0,36 0,12" transform="translate(45,0)" fill="var(--bee-amber)" stroke="var(--bee-gold)" stroke-width="1.2" opacity="0.65"/>
    <polygon points="21,0 42,12 42,36 21,48 0,36 0,12" transform="translate(90,0)" fill="var(--bee-gold-light)" stroke="var(--bee-gold)" stroke-width="1.2"/>
    <polygon points="21,0 42,12 42,36 21,48 0,36 0,12" transform="translate(135,0)" fill="var(--bee-amber)" stroke="var(--bee-gold)" stroke-width="1.2" opacity="0.65"/>
    <polygon points="21,0 42,12 42,36 21,48 0,36 0,12" transform="translate(180,0)" fill="#f0e4b0" stroke="var(--bee-gold)" stroke-width="1.2" opacity="0.7"/>
    <polygon points="21,0 42,12 42,36 21,48 0,36 0,12" transform="translate(225,0)" fill="var(--bee-gold-light)" stroke="var(--bee-gold)" stroke-width="1.2"/>
    <polygon points="21,0 42,12 42,36 21,48 0,36 0,12" transform="translate(270,0)" fill="var(--bee-amber)" stroke="var(--bee-gold)" stroke-width="1.2" opacity="0.65"/>
  </g>
  <!-- Row 1 y=-110 offset +22.5 -->
  <g transform="translate(-132.5,-110)">
    <polygon points="21,0 42,12 42,36 21,48 0,36 0,12" fill="var(--bee-amber)" stroke="var(--bee-gold)" stroke-width="1.2" opacity="0.65"/>
    <polygon points="21,0 42,12 42,36 21,48 0,36 0,12" transform="translate(45,0)" fill="var(--bee-gold-light)" stroke="var(--bee-gold)" stroke-width="1.2"/>
    <polygon points="21,0 42,12 42,36 21,48 0,36 0,12" transform="translate(90,0)" fill="#f0e4b0" stroke="var(--bee-gold)" stroke-width="1.2" opacity="0.7"/>
    <polygon points="21,0 42,12 42,36 21,48 0,36 0,12" transform="translate(135,0)" fill="var(--bee-gold-light)" stroke="var(--bee-gold)" stroke-width="1.2"/>
    <polygon points="21,0 42,12 42,36 21,48 0,36 0,12" transform="translate(180,0)" fill="var(--bee-amber)" stroke="var(--bee-gold)" stroke-width="1.2" opacity="0.65"/>
    <polygon points="21,0 42,12 42,36 21,48 0,36 0,12" transform="translate(225,0)" fill="#9a7248" stroke="var(--bee-gold)" stroke-width="1.2" opacity="0.5"/>
    <polygon points="21,0 42,12 42,36 21,48 0,36 0,12" transform="translate(270,0)" fill="var(--bee-gold-light)" stroke="var(--bee-gold)" stroke-width="1.2"/>
    <polygon points="21,0 42,12 42,36 21,48 0,36 0,12" transform="translate(315,0)" fill="var(--bee-amber)" stroke="var(--bee-gold)" stroke-width="1.2" opacity="0.65"/>
  </g>
  <!-- Row 2 y=-80 -->
  <g transform="translate(-155,-80)">
    <polygon points="21,0 42,12 42,36 21,48 0,36 0,12" fill="var(--bee-gold-light)" stroke="var(--bee-gold)" stroke-width="1.2"/>
    <polygon points="21,0 42,12 42,36 21,48 0,36 0,12" transform="translate(45,0)" fill="#c8a060" stroke="var(--bee-gold)" stroke-width="1.2" opacity="0.55"/>
    <polygon points="21,0 42,12 42,36 21,48 0,36 0,12" transform="translate(90,0)" fill="var(--bee-amber)" stroke="var(--bee-gold)" stroke-width="1.2" opacity="0.65"/>
    <polygon points="21,0 42,12 42,36 21,48 0,36 0,12" transform="translate(135,0)" fill="var(--bee-gold-light)" stroke="var(--bee-gold)" stroke-width="1.2"/>
    <polygon points="21,0 42,12 42,36 21,48 0,36 0,12" transform="translate(180,0)" fill="var(--bee-amber)" stroke="var(--bee-gold)" stroke-width="1.2" opacity="0.65"/>
    <polygon points="21,0 42,12 42,36 21,48 0,36 0,12" transform="translate(225,0)" fill="#f0e4b0" stroke="var(--bee-gold)" stroke-width="1.2" opacity="0.7"/>
    <polygon points="21,0 42,12 42,36 21,48 0,36 0,12" transform="translate(270,0)" fill="var(--bee-gold-light)" stroke="var(--bee-gold)" stroke-width="1.2"/>
  </g>
  <!-- Row 3 y=-50 offset+22.5 -->
  <g transform="translate(-132.5,-50)">
    <polygon points="21,0 42,12 42,36 21,48 0,36 0,12" fill="var(--bee-amber)" stroke="var(--bee-gold)" stroke-width="1.2" opacity="0.65"/>
    <polygon points="21,0 42,12 42,36 21,48 0,36 0,12" transform="translate(45,0)" fill="var(--bee-gold-light)" stroke="var(--bee-gold)" stroke-width="1.2"/>
    <polygon points="21,0 42,12 42,36 21,48 0,36 0,12" transform="translate(90,0)" fill="var(--bee-gold-light)" stroke="var(--bee-gold)" stroke-width="1.2"/>
    <polygon points="21,0 42,12 42,36 21,48 0,36 0,12" transform="translate(135,0)" fill="var(--bee-amber)" stroke="var(--bee-gold)" stroke-width="1.2" opacity="0.65"/>
    <polygon points="21,0 42,12 42,36 21,48 0,36 0,12" transform="translate(180,0)" fill="#9a7248" stroke="var(--bee-gold)" stroke-width="1.2" opacity="0.5"/>
    <polygon points="21,0 42,12 42,36 21,48 0,36 0,12" transform="translate(225,0)" fill="var(--bee-gold-light)" stroke="var(--bee-gold)" stroke-width="1.2"/>
    <polygon points="21,0 42,12 42,36 21,48 0,36 0,12" transform="translate(270,0)" fill="var(--bee-amber)" stroke="var(--bee-gold)" stroke-width="1.2" opacity="0.65"/>
    <polygon points="21,0 42,12 42,36 21,48 0,36 0,12" transform="translate(315,0)" fill="#c8a060" stroke="var(--bee-gold)" stroke-width="1.2" opacity="0.55"/>
  </g>
  <!-- Row 4 y=-20 -->
  <g transform="translate(-155,-20)">
    <polygon points="21,0 42,12 42,36 21,48 0,36 0,12" fill="#f0e4b0" stroke="var(--bee-gold)" stroke-width="1.2" opacity="0.7"/>
    <polygon points="21,0 42,12 42,36 21,48 0,36 0,12" transform="translate(45,0)" fill="var(--bee-amber)" stroke="var(--bee-gold)" stroke-width="1.2" opacity="0.65"/>
    <polygon points="21,0 42,12 42,36 21,48 0,36 0,12" transform="translate(90,0)" fill="var(--bee-gold-light)" stroke="var(--bee-gold)" stroke-width="1.2"/>
    <polygon points="21,0 42,12 42,36 21,48 0,36 0,12" transform="translate(135,0)" fill="#c8a060" stroke="var(--bee-gold)" stroke-width="1.2" opacity="0.55"/>
    <polygon points="21,0 42,12 42,36 21,48 0,36 0,12" transform="translate(180,0)" fill="var(--bee-amber)" stroke="var(--bee-gold)" stroke-width="1.2" opacity="0.65"/>
    <polygon points="21,0 42,12 42,36 21,48 0,36 0,12" transform="translate(225,0)" fill="var(--bee-gold-light)" stroke="var(--bee-gold)" stroke-width="1.2"/>
    <polygon points="21,0 42,12 42,36 21,48 0,36 0,12" transform="translate(270,0)" fill="var(--bee-amber)" stroke="var(--bee-gold)" stroke-width="1.2" opacity="0.65"/>
  </g>
  <!-- Row 5 y=+10 offset+22.5 -->
  <g transform="translate(-132.5,10)">
    <polygon points="21,0 42,12 42,36 21,48 0,36 0,12" fill="var(--bee-gold-light)" stroke="var(--bee-gold)" stroke-width="1.2"/>
    <polygon points="21,0 42,12 42,36 21,48 0,36 0,12" transform="translate(45,0)" fill="var(--bee-amber)" stroke="var(--bee-gold)" stroke-width="1.2" opacity="0.65"/>
    <polygon points="21,0 42,12 42,36 21,48 0,36 0,12" transform="translate(90,0)" fill="#9a7248" stroke="var(--bee-gold)" stroke-width="1.2" opacity="0.5"/>
    <polygon points="21,0 42,12 42,36 21,48 0,36 0,12" transform="translate(135,0)" fill="var(--bee-amber)" stroke="var(--bee-gold)" stroke-width="1.2" opacity="0.65"/>
    <polygon points="21,0 42,12 42,36 21,48 0,36 0,12" transform="translate(180,0)" fill="var(--bee-gold-light)" stroke="var(--bee-gold)" stroke-width="1.2"/>
    <polygon points="21,0 42,12 42,36 21,48 0,36 0,12" transform="translate(225,0)" fill="#f0e4b0" stroke="var(--bee-gold)" stroke-width="1.2" opacity="0.7"/>
    <polygon points="21,0 42,12 42,36 21,48 0,36 0,12" transform="translate(270,0)" fill="var(--bee-amber)" stroke="var(--bee-gold)" stroke-width="1.2" opacity="0.65"/>
    <polygon points="21,0 42,12 42,36 21,48 0,36 0,12" transform="translate(315,0)" fill="var(--bee-gold-light)" stroke="var(--bee-gold)" stroke-width="1.2"/>
  </g>
  <!-- Row 6 y=+40 -->
  <g transform="translate(-155,40)">
    <polygon points="21,0 42,12 42,36 21,48 0,36 0,12" fill="var(--bee-amber)" stroke="var(--bee-gold)" stroke-width="1.2" opacity="0.65"/>
    <polygon points="21,0 42,12 42,36 21,48 0,36 0,12" transform="translate(45,0)" fill="var(--bee-gold-light)" stroke="var(--bee-gold)" stroke-width="1.2"/>
    <polygon points="21,0 42,12 42,36 21,48 0,36 0,12" transform="translate(90,0)" fill="var(--bee-amber)" stroke="var(--bee-gold)" stroke-width="1.2" opacity="0.65"/>
    <polygon points="21,0 42,12 42,36 21,48 0,36 0,12" transform="translate(135,0)" fill="#c8a060" stroke="var(--bee-gold)" stroke-width="1.2" opacity="0.55"/>
    <polygon points="21,0 42,12 42,36 21,48 0,36 0,12" transform="translate(180,0)" fill="var(--bee-gold-light)" stroke="var(--bee-gold)" stroke-width="1.2"/>
    <polygon points="21,0 42,12 42,36 21,48 0,36 0,12" transform="translate(225,0)" fill="var(--bee-amber)" stroke="var(--bee-gold)" stroke-width="1.2" opacity="0.65"/>
    <polygon points="21,0 42,12 42,36 21,48 0,36 0,12" transform="translate(270,0)" fill="#9a7248" stroke="var(--bee-gold)" stroke-width="1.2" opacity="0.5"/>
  </g>
  <!-- Row 7 y=+70 offset+22.5 -->
  <g transform="translate(-132.5,70)">
    <polygon points="21,0 42,12 42,36 21,48 0,36 0,12" fill="var(--bee-gold-light)" stroke="var(--bee-gold)" stroke-width="1.2"/>
    <polygon points="21,0 42,12 42,36 21,48 0,36 0,12" transform="translate(45,0)" fill="var(--bee-amber)" stroke="var(--bee-gold)" stroke-width="1.2" opacity="0.65"/>
    <polygon points="21,0 42,12 42,36 21,48 0,36 0,12" transform="translate(90,0)" fill="#f0e4b0" stroke="var(--bee-gold)" stroke-width="1.2" opacity="0.7"/>
    <polygon points="21,0 42,12 42,36 21,48 0,36 0,12" transform="translate(135,0)" fill="var(--bee-amber)" stroke="var(--bee-gold)" stroke-width="1.2" opacity="0.65"/>
    <polygon points="21,0 42,12 42,36 21,48 0,36 0,12" transform="translate(180,0)" fill="var(--bee-gold-light)" stroke="var(--bee-gold)" stroke-width="1.2"/>
    <polygon points="21,0 42,12 42,36 21,48 0,36 0,12" transform="translate(225,0)" fill="var(--bee-amber)" stroke="var(--bee-gold)" stroke-width="1.2" opacity="0.65"/>
    <polygon points="21,0 42,12 42,36 21,48 0,36 0,12" transform="translate(270,0)" fill="#c8a060" stroke="var(--bee-gold)" stroke-width="1.2" opacity="0.55"/>
    <polygon points="21,0 42,12 42,36 21,48 0,36 0,12" transform="translate(315,0)" fill="var(--bee-gold-light)" stroke="var(--bee-gold)" stroke-width="1.2"/>
  </g>
</g>

<!-- Honey drips falling from honeycomb bottom -->
<path d="M260 530 Q258 545 260 555 Q262 565 260 572" fill="var(--bee-honey)" opacity="0.75"/>
<ellipse cx="260" cy="555" rx="5" ry="8" fill="var(--bee-honey)" opacity="0.75"/>
<ellipse cx="260" cy="572" rx="4" ry="5" fill="var(--bee-honey)" opacity="0.5"/>

<path d="M330 535 Q328 548 330 558" fill="var(--bee-honey)" opacity="0.75"/>
<ellipse cx="330" cy="556" rx="4.5" ry="7" fill="var(--bee-honey)" opacity="0.75"/>

<path d="M405 528 Q403 542 405 552 Q407 560 405 567" fill="var(--bee-honey)" opacity="0.75"/>
<ellipse cx="405" cy="560" rx="5" ry="9" fill="var(--bee-honey)" opacity="0.75"/>
<ellipse cx="405" cy="570" rx="3" ry="4" fill="var(--bee-honey)" opacity="0.45"/>

<!-- QUEEN BEE — large, center-top of comb -->
<g transform="translate(340,225)">
  <!-- Wings -->
  <ellipse cx="-28" cy="-8" rx="28" ry="14" transform="rotate(-20,-28,-8)" fill="var(--bee-wing)" opacity="0.55"/>
  <ellipse cx="28" cy="-8" rx="28" ry="14" transform="rotate(20,28,-8)" fill="var(--bee-wing)" opacity="0.55"/>
  <ellipse cx="-22" cy="2" rx="20" ry="10" transform="rotate(-10,-22,2)" fill="var(--bee-wing)" opacity="0.25"/>
  <ellipse cx="22" cy="2" rx="20" ry="10" transform="rotate(10,22,2)" fill="var(--bee-wing)" opacity="0.25"/>
  <!-- Body - elongated queen -->
  <ellipse cx="0" cy="8" rx="12" ry="28" fill="#d4a010"/>
  <rect x="-12" y="-4" width="24" height="5" rx="2" fill="var(--bee-dark)"/>
  <rect x="-11" y="7" width="22" height="5" rx="2" fill="var(--bee-dark)"/>
  <rect x="-10" y="18" width="20" height="4" rx="2" fill="var(--bee-dark)"/>
  <!-- Head -->
  <ellipse cx="0" cy="-22" rx="9" ry="9" fill="#d4a010"/>
  <!-- Antennae -->
  <path d="M-4,-30 Q-15,-45 -20,-50" stroke="var(--bee-gold)" stroke-width="1.5" fill="none"/>
  <circle cx="-20" cy="-50" r="2.5" fill="#e8c030" stroke="#b08020" stroke-width="0.8"/>
  <path d="M4,-30 Q15,-45 20,-50" stroke="var(--bee-gold)" stroke-width="1.5" fill="none"/>
  <circle cx="20" cy="-50" r="2.5" fill="#e8c030" stroke="#b08020" stroke-width="0.8"/>
  <!-- Crown -->
  <g transform="translate(0,-35)">
    <rect x="-11" y="-3" width="22" height="8" rx="1" fill="#e8c030" stroke="#b08020" stroke-width="0.8"/>
    <polygon points="0,-10 -4,-3 4,-3" fill="#e8c030" stroke="#b08020" stroke-width="0.8"/>
    <polygon points="-8,-8 -11,-3 -5,-3" fill="#e8c030" stroke="#b08020" stroke-width="0.8"/>
    <polygon points="8,-8 11,-3 5,-3" fill="#e8c030" stroke="#b08020" stroke-width="0.8"/>
    <!-- Crown jewels - tiny dots -->
    <circle cx="-5" cy="1" r="1.5" fill="#e05050" opacity="0.8"/>
    <circle cx="0" cy="0" r="1.5" fill="#50a0e0" opacity="0.8"/>
    <circle cx="5" cy="1" r="1.5" fill="#50c070" opacity="0.8"/>
  </g>
</g>

<!-- WORKER BEE 1 — top left, flying -->
<g transform="translate(148,195) rotate(-15)">
  <ellipse cx="-16" cy="-5" rx="16" ry="8" transform="rotate(-25,-16,-5)" fill="var(--bee-wing)" opacity="0.55"/>
  <ellipse cx="16" cy="-5" rx="16" ry="8" transform="rotate(25,16,-5)" fill="var(--bee-wing)" opacity="0.55"/>
  <ellipse cx="0" cy="4" rx="8" ry="16" fill="#d49820"/>
  <rect x="-8" y="-2" width="16" height="4" rx="1.5" fill="var(--bee-dark)"/>
  <rect x="-7" y="6" width="14" height="3" rx="1.5" fill="var(--bee-dark)"/>
  <rect x="-6" y="13" width="12" height="3" rx="1.5" fill="var(--bee-dark)"/>
  <ellipse cx="0" cy="-13" rx="6" ry="6" fill="#d49820"/>
  <path d="M-2,-19 Q-8,-27 -11,-30" stroke="var(--bee-gold)" stroke-width="1" fill="none"/>
  <circle cx="-11" cy="-30" r="1.5" fill="#d49820"/>
  <path d="M2,-19 Q8,-27 11,-30" stroke="var(--bee-gold)" stroke-width="1" fill="none"/>
  <circle cx="11" cy="-30" r="1.5" fill="#d49820"/>
</g>

<!-- WORKER BEE 2 — top right -->
<g transform="translate(515,210) rotate(20)">
  <ellipse cx="-16" cy="-5" rx="16" ry="8" transform="rotate(-25,-16,-5)" fill="var(--bee-wing)" opacity="0.55"/>
  <ellipse cx="16" cy="-5" rx="16" ry="8" transform="rotate(25,16,-5)" fill="var(--bee-wing)" opacity="0.55"/>
  <ellipse cx="0" cy="4" rx="8" ry="16" fill="#d49820"/>
  <rect x="-8" y="-2" width="16" height="4" rx="1.5" fill="var(--bee-dark)"/>
  <rect x="-7" y="6" width="14" height="3" rx="1.5" fill="var(--bee-dark)"/>
  <rect x="-6" y="13" width="12" height="3" rx="1.5" fill="var(--bee-dark)"/>
  <ellipse cx="0" cy="-13" rx="6" ry="6" fill="#d49820"/>
  <path d="M-2,-19 Q-8,-27 -11,-30" stroke="var(--bee-gold)" stroke-width="1" fill="none"/>
  <circle cx="-11" cy="-30" r="1.5" fill="#d49820"/>
  <path d="M2,-19 Q8,-27 11,-30" stroke="var(--bee-gold)" stroke-width="1" fill="none"/>
  <circle cx="11" cy="-30" r="1.5" fill="#d49820"/>
</g>

<!-- WORKER BEE 3 — lower left, on comb -->
<g transform="translate(165,460) rotate(10)">
  <ellipse cx="-14" cy="-4" rx="13" ry="7" transform="rotate(-20,-14,-4)" fill="var(--bee-wing)" opacity="0.55"/>
  <ellipse cx="14" cy="-4" rx="13" ry="7" transform="rotate(20,14,-4)" fill="var(--bee-wing)" opacity="0.55"/>
  <ellipse cx="0" cy="4" rx="7" ry="14" fill="#d49820"/>
  <rect x="-7" y="-1" width="14" height="3.5" rx="1.5" fill="var(--bee-dark)"/>
  <rect x="-6" y="6" width="12" height="3" rx="1.5" fill="var(--bee-dark)"/>
  <rect x="-5" y="12" width="10" height="3" rx="1.5" fill="var(--bee-dark)"/>
  <ellipse cx="0" cy="-11" rx="5.5" ry="5.5" fill="#d49820"/>
</g>

<!-- WORKER BEE 4 — lower right -->
<g transform="translate(518,470) rotate(-8)">
  <ellipse cx="-14" cy="-4" rx="13" ry="7" transform="rotate(-20,-14,-4)" fill="var(--bee-wing)" opacity="0.55"/>
  <ellipse cx="14" cy="-4" rx="13" ry="7" transform="rotate(20,14,-4)" fill="var(--bee-wing)" opacity="0.55"/>
  <ellipse cx="0" cy="4" rx="7" ry="14" fill="#d49820"/>
  <rect x="-7" y="-1" width="14" height="3.5" rx="1.5" fill="var(--bee-dark)"/>
  <rect x="-6" y="6" width="12" height="3" rx="1.5" fill="var(--bee-dark)"/>
  <rect x="-5" y="12" width="10" height="3" rx="1.5" fill="var(--bee-dark)"/>
  <ellipse cx="0" cy="-11" rx="5.5" ry="5.5" fill="#d49820"/>
</g>

<!-- FOUR SMALL VIALS — bottom row, spaced, handmade look -->
<!-- Vial 1: Honey (amber) -->
<g transform="translate(176,590)">
  <rect x="-10" y="-30" width="20" height="38" rx="4" fill="#f0ece4" stroke="#b0a890" stroke-width="0.8"/>
  <rect x="-7" y="0" width="14" height="8" rx="2" fill="var(--bee-honey)" opacity="0.75"/>
  <rect x="-7" y="-8" width="14" height="10" rx="1" fill="var(--bee-honey)" opacity="0.45"/>
  <rect x="-6" y="-34" width="12" height="8" rx="2" fill="#f0ece4" stroke="#b0a890" stroke-width="0.8"/>
  <rect x="-3" y="-36" width="6" height="4" rx="1" fill="#f0ece4" stroke="#b0a890" stroke-width="0.8"/>
</g>

<!-- Vial 2: Royal Jelly (pale yellow) -->
<g transform="translate(256,590)">
  <rect x="-10" y="-30" width="20" height="38" rx="4" fill="#f0ece4" stroke="#b0a890" stroke-width="0.8"/>
  <rect x="-7" y="-2" width="14" height="10" rx="2" fill="var(--bee-royal)" opacity="0.8"/>
  <rect x="-7" y="-12" width="14" height="12" rx="1" fill="var(--bee-royal)" opacity="0.4"/>
  <rect x="-6" y="-34" width="12" height="8" rx="2" fill="#f0ece4" stroke="#b0a890" stroke-width="0.8"/>
  <rect x="-3" y="-36" width="6" height="4" rx="1" fill="#f0ece4" stroke="#b0a890" stroke-width="0.8"/>
</g>

<!-- Vial 3: Propolis (dark brown) -->
<g transform="translate(424,590)">
  <rect x="-10" y="-30" width="20" height="38" rx="4" fill="#f0ece4" stroke="#b0a890" stroke-width="0.8"/>
  <rect x="-7" y="1" width="14" height="7" rx="2" fill="var(--bee-propolis)" opacity="0.7"/>
  <rect x="-7" y="-7" width="14" height="10" rx="1" fill="var(--bee-propolis)" opacity="0.4"/>
  <rect x="-6" y="-34" width="12" height="8" rx="2" fill="#f0ece4" stroke="#b0a890" stroke-width="0.8"/>
  <rect x="-3" y="-36" width="6" height="4" rx="1" fill="#f0ece4" stroke="#b0a890" stroke-width="0.8"/>
</g>

<!-- Vial 4: Bee Bread (warm tan) -->
<g transform="translate(504,590)">
  <rect x="-10" y="-30" width="20" height="38" rx="4" fill="#f0ece4" stroke="#b0a890" stroke-width="0.8"/>
  <rect x="-7" y="-1" width="14" height="9" rx="2" fill="var(--bee-bread)" opacity="0.7"/>
  <rect x="-7" y="-10" width="14" height="11" rx="1" fill="var(--bee-bread)" opacity="0.38"/>
  <rect x="-6" y="-34" width="12" height="8" rx="2" fill="#f0ece4" stroke="#b0a890" stroke-width="0.8"/>
  <rect x="-3" y="-36" width="6" height="4" rx="1" fill="#f0ece4" stroke="#b0a890" stroke-width="0.8"/>
</g>

<!-- Small connecting dots between vials (whimsical) -->
<circle cx="216" cy="590" r="2.5" fill="var(--bee-gold)" opacity="0.12"/>
<circle cx="228" cy="592" r="1.5" fill="var(--bee-gold)" opacity="0.12"/>
<circle cx="340" cy="590" r="3" fill="var(--bee-gold)" opacity="0.12"/>
<circle cx="380" cy="590" r="2" fill="var(--bee-gold)" opacity="0.12"/>
<circle cx="464" cy="590" r="2.5" fill="var(--bee-gold)" opacity="0.12"/>

<!-- Tiny floating pollen dots around the bees -->
<circle cx="130" cy="220" r="2.5" fill="var(--bee-gold)" opacity="0.12"/>
<circle cx="118" cy="235" r="1.5" fill="var(--bee-gold)" opacity="0.12"/>
<circle cx="548" cy="180" r="2" fill="var(--bee-gold)" opacity="0.12"/>
<circle cx="562" cy="198" r="3" fill="var(--bee-gold)" opacity="0.12"/>
<circle cx="540" cy="205" r="1.5" fill="var(--bee-gold)" opacity="0.12"/>

<!-- Flight path dashes (whimsical) -->
<path d="M175 205 Q220 195 255 210" stroke="var(--bee-green)" stroke-width="0.8" fill="none" stroke-dasharray="3,5" opacity="0.4"/>
<path d="M505 215 Q478 208 455 218" stroke="var(--bee-green)" stroke-width="0.8" fill="none" stroke-dasharray="3,5" opacity="0.4"/>

</svg>