<svg viewBox="0 0 400 400" xmlns="http://www.w3.org/2000/svg">
<style>
:root {
  --thumb-purple: #9869D3;
  --thumb-purple-dark: #7048B0;
  --thumb-lavender: #C4A8E8;
  --thumb-lav-light: #E0D4F8;
  --thumb-pink: #E8A0C0;
  --thumb-pink-light: #F4D0E4;
  --thumb-blue: #8CA8D8;
  --thumb-blue-light: #C4D8F4;
  --thumb-teal: #6BA39A;
  --thumb-amber: #C08A64;
  --thumb-ink: rgba(15,10,40,0.75);
  --thumb-ink-light: rgba(15,10,40,0.45);
  --thumb-white: rgba(255,255,255,0.9);
  --thumb-white-mid: rgba(255,255,255,0.5);
  --thumb-white-subtle: rgba(255,255,255,0.2);
}
</style>
<defs>
  <radialGradient id="gbg1" cx="30%" cy="25%" r="60%">
    <stop offset="0%" stop-color="var(--thumb-lavender)" stop-opacity=".35"/>
    <stop offset="100%" stop-color="var(--thumb-lavender)" stop-opacity="0"/>
  </radialGradient>
  <radialGradient id="gbg2" cx="75%" cy="70%" r="55%">
    <stop offset="0%" stop-color="var(--thumb-pink)" stop-opacity=".28"/>
    <stop offset="100%" stop-color="var(--thumb-pink)" stop-opacity="0"/>
  </radialGradient>
  <radialGradient id="gbg3" cx="60%" cy="20%" r="50%">
    <stop offset="0%" stop-color="var(--thumb-blue)" stop-opacity=".22"/>
    <stop offset="100%" stop-color="var(--thumb-blue)" stop-opacity="0"/>
  </radialGradient>
  <pattern id="dots" x="0" y="0" width="20" height="20" patternUnits="userSpaceOnUse">
    <circle cx="1" cy="1" r=".8" fill="var(--thumb-purple)" opacity=".12"/>
  </pattern>
  <radialGradient id="gvig" cx="50%" cy="50%" r="50%">
    <stop offset="55%" stop-color="transparent"/>
    <stop offset="100%" stop-color="rgba(100,80,160,0.1)"/>
  </radialGradient>

</defs>
  <rect width="400" height="400" fill="rgba(245,243,239,0.01)"/>
  <rect width="400" height="400" fill="url(#gbg1)"/>
  <rect width="400" height="400" fill="url(#gbg2)"/>
  <rect width="400" height="400" fill="url(#gbg3)"/>
  <rect width="400" height="400" fill="url(#dots)"/>

<!-- chart upward -->
<polyline points="68,312 140,242 212,262 283,162 352,122" fill="none" stroke="var(--thumb-blue)" stroke-width="3" stroke-linecap="round" stroke-linejoin="round" opacity=".55"/>
<polygon points="352,122 338,138 355,143" fill="var(--thumb-blue)" opacity=".55"/>
<!-- bar chart -->
<g transform="translate(200,312)">
  <rect x="-122" y="-62" width="36" height="62" rx="3.5" fill="var(--thumb-blue)" opacity=".35"/>
  <rect x="-78" y="-98" width="36" height="98" rx="3.5" fill="var(--thumb-blue)" opacity=".42"/>
  <rect x="-32" y="-78" width="36" height="78" rx="3.5" fill="var(--thumb-purple)" opacity=".38"/>
  <rect x="14" y="-114" width="36" height="114" rx="3.5" fill="var(--thumb-blue)" opacity=".48"/>
  <rect x="60" y="-88" width="36" height="88" rx="3.5" fill="var(--thumb-blue)" opacity=".4"/>
  <line x1="-132" y1="0" x2="110" y2="0" stroke="var(--thumb-blue)" stroke-width="1.5" opacity=".3"/>
</g>
<!-- bird X old -->
<g transform="translate(200,168)" fill="var(--thumb-blue)" opacity=".3">
  <path d="M 0 -62 Q 32 -72 52 -52 Q 42 -54 32 -46 Q 52 -50 62 -32 Q 47 -34 40 -22 Q 57 -12 52 8 Q 34 2 22 14 Q 20 38 10 54 Q 0 38 -3 22 Q -18 38 -36 35 Q -20 24 -16 10 Q -36 18 -48 8 Q -28 4 -22 -10 Q -43 -8 -48 -25 Q -28 -20 -22 -32 Q -33 -42 -28 -58 Q -13 -46 0 -62 Z"/>
</g>
  <rect width="400" height="400" fill="url(#gvig)"/>
</svg>