<svg viewBox="0 0 400 400" xmlns="http://www.w3.org/2000/svg">
<style>
:root {
  --thumb-purple: #9869D3;
  --thumb-purple-dark: #7048B0;
  --thumb-lavender: #C4A8E8;
  --thumb-lav-light: #E0D4F8;
  --thumb-pink: #E8A0C0;
  --thumb-pink-light: #F4D0E4;
  --thumb-blue: #8CA8D8;
  --thumb-blue-light: #C4D8F4;
  --thumb-teal: #6BA39A;
  --thumb-amber: #C08A64;
  --thumb-ink: rgba(15,10,40,0.75);
  --thumb-ink-light: rgba(15,10,40,0.45);
  --thumb-white: rgba(255,255,255,0.9);
  --thumb-white-mid: rgba(255,255,255,0.5);
  --thumb-white-subtle: rgba(255,255,255,0.2);
}
</style>
<defs>
  <radialGradient id="gbg1" cx="30%" cy="25%" r="60%">
    <stop offset="0%" stop-color="var(--thumb-lavender)" stop-opacity=".35"/>
    <stop offset="100%" stop-color="var(--thumb-lavender)" stop-opacity="0"/>
  </radialGradient>
  <radialGradient id="gbg2" cx="75%" cy="70%" r="55%">
    <stop offset="0%" stop-color="var(--thumb-pink)" stop-opacity=".28"/>
    <stop offset="100%" stop-color="var(--thumb-pink)" stop-opacity="0"/>
  </radialGradient>
  <radialGradient id="gbg3" cx="60%" cy="20%" r="50%">
    <stop offset="0%" stop-color="var(--thumb-blue)" stop-opacity=".22"/>
    <stop offset="100%" stop-color="var(--thumb-blue)" stop-opacity="0"/>
  </radialGradient>
  <pattern id="dots" x="0" y="0" width="20" height="20" patternUnits="userSpaceOnUse">
    <circle cx="1" cy="1" r=".8" fill="var(--thumb-purple)" opacity=".12"/>
  </pattern>
  <radialGradient id="gvig" cx="50%" cy="50%" r="50%">
    <stop offset="55%" stop-color="transparent"/>
    <stop offset="100%" stop-color="rgba(100,80,160,0.1)"/>
  </radialGradient>

</defs>
  <rect width="400" height="400" fill="rgba(245,243,239,0.01)"/>
  <rect width="400" height="400" fill="url(#gbg1)"/>
  <rect width="400" height="400" fill="url(#gbg2)"/>
  <rect width="400" height="400" fill="url(#gbg3)"/>
  <rect width="400" height="400" fill="url(#dots)"/>

<!-- notebook -->
<rect x="102" y="98" width="196" height="242" rx="7" fill="var(--thumb-white)" opacity=".68" filter="drop-shadow(0 6px 20px rgba(152,105,211,.18))"/>
<rect x="102" y="98" width="22" height="242" rx="4" fill="var(--thumb-purple)" opacity=".3"/>
<g fill="var(--thumb-purple)" opacity=".4">
  <circle cx="113" cy="128" r="4.5"/><circle cx="113" cy="153" r="4.5"/><circle cx="113" cy="178" r="4.5"/>
  <circle cx="113" cy="203" r="4.5"/><circle cx="113" cy="228" r="4.5"/><circle cx="113" cy="253" r="4.5"/>
  <circle cx="113" cy="278" r="4.5"/><circle cx="113" cy="303" r="4.5"/>
</g>
<g stroke="var(--thumb-lav-light)" stroke-width="1.5" opacity=".6">
  <line x1="132" y1="138" x2="285" y2="138"/><line x1="132" y1="160" x2="285" y2="160"/>
  <line x1="132" y1="182" x2="285" y2="182"/><line x1="132" y1="204" x2="267" y2="204"/>
  <line x1="132" y1="226" x2="285" y2="226"/><line x1="132" y1="248" x2="272" y2="248"/>
</g>
<!-- Korean characters -->
<g font-family="serif" fill="var(--thumb-purple)">
  <text x="200" y="202" text-anchor="middle" font-size="66" opacity=".15">한</text>
  <text x="98" y="148" font-size="38" opacity=".08">어</text>
  <text x="290" y="262" font-size="32" opacity=".08">공</text>
  <text x="76" y="282" font-size="28" opacity=".07">부</text>
  <text x="308" y="138" font-size="26" opacity=".07">국</text>
</g>
  <rect width="400" height="400" fill="url(#gvig)"/>
</svg>