<svg viewBox="0 0 400 400" xmlns="http://www.w3.org/2000/svg">
<style>
:root {
  --thumb-purple: #9869D3;
  --thumb-purple-dark: #7048B0;
  --thumb-lavender: #C4A8E8;
  --thumb-lav-light: #E0D4F8;
  --thumb-pink: #E8A0C0;
  --thumb-pink-light: #F4D0E4;
  --thumb-blue: #8CA8D8;
  --thumb-blue-light: #C4D8F4;
  --thumb-teal: #6BA39A;
  --thumb-amber: #C08A64;
  --thumb-ink: rgba(15,10,40,0.75);
  --thumb-ink-light: rgba(15,10,40,0.45);
  --thumb-white: rgba(255,255,255,0.9);
  --thumb-white-mid: rgba(255,255,255,0.5);
  --thumb-white-subtle: rgba(255,255,255,0.2);
}
</style>
<defs>
  <radialGradient id="gbg1" cx="30%" cy="25%" r="60%">
    <stop offset="0%" stop-color="var(--thumb-lavender)" stop-opacity=".35"/>
    <stop offset="100%" stop-color="var(--thumb-lavender)" stop-opacity="0"/>
  </radialGradient>
  <radialGradient id="gbg2" cx="75%" cy="70%" r="55%">
    <stop offset="0%" stop-color="var(--thumb-pink)" stop-opacity=".28"/>
    <stop offset="100%" stop-color="var(--thumb-pink)" stop-opacity="0"/>
  </radialGradient>
  <radialGradient id="gbg3" cx="60%" cy="20%" r="50%">
    <stop offset="0%" stop-color="var(--thumb-blue)" stop-opacity=".22"/>
    <stop offset="100%" stop-color="var(--thumb-blue)" stop-opacity="0"/>
  </radialGradient>
  <pattern id="dots" x="0" y="0" width="20" height="20" patternUnits="userSpaceOnUse">
    <circle cx="1" cy="1" r=".8" fill="var(--thumb-purple)" opacity=".12"/>
  </pattern>
  <radialGradient id="gvig" cx="50%" cy="50%" r="50%">
    <stop offset="55%" stop-color="transparent"/>
    <stop offset="100%" stop-color="rgba(100,80,160,0.1)"/>
  </radialGradient>

</defs>
  <rect width="400" height="400" fill="rgba(245,243,239,0.01)"/>
  <rect width="400" height="400" fill="url(#gbg1)"/>
  <rect width="400" height="400" fill="url(#gbg2)"/>
  <rect width="400" height="400" fill="url(#gbg3)"/>
  <rect width="400" height="400" fill="url(#dots)"/>

<!-- coin -->
<g transform="translate(200,202)">
  <circle cx="0" cy="0" r="72" fill="var(--thumb-amber)" opacity=".45"/>
  <circle cx="0" cy="0" r="64" fill="none" stroke="var(--thumb-pink-light)" stroke-width="2" opacity=".5"/>
  <!-- rhino on coin simplified -->
  <g transform="scale(.42)" fill="var(--thumb-purple-dark)" opacity=".5">
    <ellipse cx="0" cy="10" rx="92" ry="57"/><ellipse cx="-78" cy="-5" rx="48" ry="42"/>
    <ellipse cx="-114" cy="0" rx="26" ry="20"/>
    <path d="M -128 -20 Q -136 -52 -126 -66 Q -122 -50 -120 -20 Z" fill="var(--thumb-ink)" opacity=".4"/>
  </g>
</g>
<!-- donation progress bars -->
<g transform="translate(78,342)">
  <rect x="0" y="-82" width="32" height="82" rx="4.5" fill="var(--thumb-teal)" opacity=".55"/>
  <rect x="42" y="-124" width="32" height="124" rx="4.5" fill="var(--thumb-teal)" opacity=".65"/>
  <rect x="84" y="-164" width="32" height="164" rx="4.5" fill="var(--thumb-purple)" opacity=".6"/>
  <rect x="126" y="-144" width="32" height="144" rx="4.5" fill="var(--thumb-teal)" opacity=".58"/>
  <line x1="-12" y1="0" x2="174" y2="0" stroke="var(--thumb-teal)" stroke-width="1.5" opacity=".4"/>
</g>
<!-- heart -->
<g transform="translate(334,82)" fill="var(--thumb-pink)" opacity=".6">
  <path d="M 0 13 Q -21 -4 -21 -14 Q -21 -28 -9 -28 Q -3 -28 0 -20 Q 3 -28 9 -28 Q 21 -28 21 -14 Q 21 -4 0 13 Z"/>
</g>
  <rect width="400" height="400" fill="url(#gvig)"/>
</svg>