<svg viewBox="0 0 400 400" xmlns="http://www.w3.org/2000/svg">
<style>
:root {
  --thumb-purple: #9869D3;
  --thumb-purple-dark: #7048B0;
  --thumb-lavender: #C4A8E8;
  --thumb-lav-light: #E0D4F8;
  --thumb-pink: #E8A0C0;
  --thumb-pink-light: #F4D0E4;
  --thumb-blue: #8CA8D8;
  --thumb-blue-light: #C4D8F4;
  --thumb-teal: #6BA39A;
  --thumb-amber: #C08A64;
  --thumb-ink: rgba(15,10,40,0.75);
  --thumb-ink-light: rgba(15,10,40,0.45);
  --thumb-white: rgba(255,255,255,0.9);
  --thumb-white-mid: rgba(255,255,255,0.5);
  --thumb-white-subtle: rgba(255,255,255,0.2);
}
</style>
<defs>
  <radialGradient id="gbg1" cx="30%" cy="25%" r="60%">
    <stop offset="0%" stop-color="var(--thumb-lavender)" stop-opacity=".35"/>
    <stop offset="100%" stop-color="var(--thumb-lavender)" stop-opacity="0"/>
  </radialGradient>
  <radialGradient id="gbg2" cx="75%" cy="70%" r="55%">
    <stop offset="0%" stop-color="var(--thumb-pink)" stop-opacity=".28"/>
    <stop offset="100%" stop-color="var(--thumb-pink)" stop-opacity="0"/>
  </radialGradient>
  <radialGradient id="gbg3" cx="60%" cy="20%" r="50%">
    <stop offset="0%" stop-color="var(--thumb-blue)" stop-opacity=".22"/>
    <stop offset="100%" stop-color="var(--thumb-blue)" stop-opacity="0"/>
  </radialGradient>
  <pattern id="dots" x="0" y="0" width="20" height="20" patternUnits="userSpaceOnUse">
    <circle cx="1" cy="1" r=".8" fill="var(--thumb-purple)" opacity=".12"/>
  </pattern>
  <radialGradient id="gvig" cx="50%" cy="50%" r="50%">
    <stop offset="55%" stop-color="transparent"/>
    <stop offset="100%" stop-color="rgba(100,80,160,0.1)"/>
  </radialGradient>

</defs>
  <rect width="400" height="400" fill="rgba(245,243,239,0.01)"/>
  <rect width="400" height="400" fill="url(#gbg1)"/>
  <rect width="400" height="400" fill="url(#gbg2)"/>
  <rect width="400" height="400" fill="url(#gbg3)"/>
  <rect width="400" height="400" fill="url(#dots)"/>

<!-- stacked books -->
<g transform="translate(128,308)">
  <rect x="0" y="-32" width="144" height="32" rx="3.5" fill="var(--thumb-purple)" opacity=".55"/>
  <rect x="6" y="-62" width="132" height="32" rx="3.5" fill="var(--thumb-amber)" opacity=".55"/>
  <rect x="-6" y="-92" width="148" height="32" rx="3.5" fill="var(--thumb-teal)" opacity=".55"/>
  <rect x="9" y="-120" width="128" height="30" rx="3.5" fill="var(--thumb-blue)" opacity=".55"/>
</g>
<!-- kindle device -->
<g transform="translate(200,192)">
  <rect x="-57" y="-92" width="114" height="154" rx="9" fill="var(--thumb-ink)" opacity=".55"/>
  <rect x="-48" y="-84" width="96" height="124" rx="5" fill="var(--thumb-lav-light)" opacity=".85"/>
  <g fill="var(--thumb-ink)" opacity=".45">
    <rect x="-40" y="-74" width="80" height="5" rx="1"/><rect x="-40" y="-64" width="70" height="4" rx="1"/>
    <rect x="-40" y="-55" width="76" height="4" rx="1"/><rect x="-40" y="-46" width="64" height="4" rx="1"/>
    <rect x="-40" y="-37" width="80" height="4" rx="1"/><rect x="-40" y="-28" width="58" height="4" rx="1"/>
    <rect x="-40" y="-19" width="72" height="4" rx="1"/><rect x="-40" y="-10" width="78" height="4" rx="1"/>
    <rect x="-40" y="-1" width="60" height="4" rx="1"/>
  </g>
  <rect x="-9" y="52" width="18" height="6" rx="3" fill="var(--thumb-ink)" opacity=".3"/>
</g>
  <rect width="400" height="400" fill="url(#gvig)"/>
</svg>