<svg viewBox="0 0 400 400" xmlns="http://www.w3.org/2000/svg">
<style>
:root {
  --thumb-purple: #9869D3;
  --thumb-purple-dark: #7048B0;
  --thumb-lavender: #C4A8E8;
  --thumb-lav-light: #E0D4F8;
  --thumb-pink: #E8A0C0;
  --thumb-pink-light: #F4D0E4;
  --thumb-blue: #8CA8D8;
  --thumb-blue-light: #C4D8F4;
  --thumb-teal: #6BA39A;
  --thumb-amber: #C08A64;
  --thumb-ink: rgba(15,10,40,0.75);
  --thumb-ink-light: rgba(15,10,40,0.45);
  --thumb-white: rgba(255,255,255,0.9);
  --thumb-white-mid: rgba(255,255,255,0.5);
  --thumb-white-subtle: rgba(255,255,255,0.2);
}
</style>
<defs>
  <radialGradient id="gbg1" cx="30%" cy="25%" r="60%">
    <stop offset="0%" stop-color="var(--thumb-lavender)" stop-opacity=".35"/>
    <stop offset="100%" stop-color="var(--thumb-lavender)" stop-opacity="0"/>
  </radialGradient>
  <radialGradient id="gbg2" cx="75%" cy="70%" r="55%">
    <stop offset="0%" stop-color="var(--thumb-pink)" stop-opacity=".28"/>
    <stop offset="100%" stop-color="var(--thumb-pink)" stop-opacity="0"/>
  </radialGradient>
  <radialGradient id="gbg3" cx="60%" cy="20%" r="50%">
    <stop offset="0%" stop-color="var(--thumb-blue)" stop-opacity=".22"/>
    <stop offset="100%" stop-color="var(--thumb-blue)" stop-opacity="0"/>
  </radialGradient>
  <pattern id="dots" x="0" y="0" width="20" height="20" patternUnits="userSpaceOnUse">
    <circle cx="1" cy="1" r=".8" fill="var(--thumb-purple)" opacity=".12"/>
  </pattern>
  <radialGradient id="gvig" cx="50%" cy="50%" r="50%">
    <stop offset="55%" stop-color="transparent"/>
    <stop offset="100%" stop-color="rgba(100,80,160,0.1)"/>
  </radialGradient>

</defs>
  <rect width="400" height="400" fill="rgba(245,243,239,0.01)"/>
  <rect width="400" height="400" fill="url(#gbg1)"/>
  <rect width="400" height="400" fill="url(#gbg2)"/>
  <rect width="400" height="400" fill="url(#gbg3)"/>
  <rect width="400" height="400" fill="url(#dots)"/>

<!-- orbital rings -->
<g transform="translate(200,200)" fill="none" stroke="var(--thumb-teal)" stroke-width="1.8" opacity=".4">
  <ellipse rx="142" ry="42" transform="rotate(0)"/>
  <ellipse rx="142" ry="42" transform="rotate(60)"/>
  <ellipse rx="142" ry="42" transform="rotate(120)"/>
</g>
<!-- nucleus -->
<circle cx="200" cy="200" r="22" fill="var(--thumb-teal)" opacity=".45"/>
<circle cx="200" cy="200" r="14" fill="var(--thumb-lavender)" opacity=".6"/>
<!-- electrons -->
<circle cx="342" cy="200" r="8" fill="var(--thumb-purple)" opacity=".7"/>
<circle cx="129" cy="127" r="8" fill="var(--thumb-purple)" opacity=".7"/>
<circle cx="129" cy="273" r="8" fill="var(--thumb-purple)" opacity=".7"/>
<circle cx="60" cy="200" r="6" fill="var(--thumb-lavender)" opacity=".55"/>
<circle cx="272" cy="127" r="6" fill="var(--thumb-lavender)" opacity=".55"/>
<!-- lattice -->
<g transform="translate(200,200)" stroke="var(--thumb-teal)" stroke-width="1.2" opacity=".2" fill="none">
  <line x1="-32" y1="-32" x2="32" y2="-32"/><line x1="32" y1="-32" x2="32" y2="32"/>
  <line x1="32" y1="32" x2="-32" y2="32"/><line x1="-32" y1="32" x2="-32" y2="-32"/>
  <line x1="-32" y1="-32" x2="0" y2="-62"/><line x1="32" y1="-32" x2="62" y2="-62"/>
  <line x1="32" y1="32" x2="62" y2="2"/><line x1="-32" y1="32" x2="-62" y2="2"/>
</g>
<!-- Si label -->
<text x="200" y="212" text-anchor="middle" font-family="'Geist Mono',monospace" font-size="24" fill="var(--thumb-teal)" opacity=".2" letter-spacing="2">Si</text>
  <rect width="400" height="400" fill="url(#gvig)"/>
</svg>